<svg width="259" height="324" viewBox="0 0 259 324" fill="none" xmlns="http://www.w3.org/2000/svg">
<path fill-rule="evenodd" clip-rule="evenodd" d="M245.861 194.94C248.025 193.81 250.138 192.583 252.217 191.305C253.682 190.428 252.385 188.221 250.883 189.018C250.116 189.426 249.351 189.838 248.583 190.244C249.187 189.723 249.747 189.156 250.249 188.539L250.215 188.504C252.151 186.769 249.664 183.495 247.462 184.92C245.52 186.328 243.561 187.765 241.332 188.692C236.715 190.65 231.623 190.975 226.668 191.031C224.855 190.895 223.123 191.209 221.363 191.559C222.053 188.791 223.779 186.7 224.695 184.019C225.371 181.312 221.465 179.468 220.08 182.07C219.741 182.709 219.417 183.356 219.1 184.005C216.108 186.728 211.112 186.488 208.095 189.411C206.376 190.937 205.535 193.008 205.202 195.086C204.977 196.497 205.328 197.912 204.475 199.162C200.351 204.997 193.835 214.22 190.526 220.641C188.183 205.382 181.927 186.509 175.464 172.556C173.327 168.094 170.882 163.734 167.672 159.951C168.036 158.69 166.752 156.451 165.935 157.14C163.422 154.069 158.979 153.273 155.407 151.746C150.584 149.683 146.583 145.395 144.616 140.522C142.089 131.241 135.867 130.062 127.24 130.472C118.982 130.462 112.873 133.995 111.071 142.404C107.411 148.786 98.7691 147.731 92.5517 149.42C87.995 150.461 83.573 152.071 79.3705 154.115C74.6953 149.679 57.9513 168.298 56.4293 173.09C57.3253 173.263 58.2158 173.472 59.0983 173.727C59.8842 173.955 59.5542 175.142 58.7615 174.952C57.7751 174.715 56.7824 174.552 55.785 174.439C55.7545 174.534 55.7279 174.629 55.7081 174.723C55.5961 174.715 55.4843 174.705 55.3724 174.698C55.6206 174.827 55.8595 174.977 56.0924 175.171C56.6552 175.638 55.9225 176.54 55.3244 176.168C54.7609 175.746 54.023 175.813 53.3471 175.671C53.307 177.062 48.3479 175.506 47.5776 175.045C44.154 174.617 40.632 175.077 37.4359 173.425C33.1833 172.529 28.8988 171.538 24.694 170.397C23.5808 170.831 22.5346 172.385 23.4188 173.525C23.9161 174.044 23.2768 174.891 22.6506 174.522C20.5504 173.285 18.9261 171.355 17.5491 169.275C16.9009 168.621 15.7504 168.762 14.8795 168.49C14.7631 168.699 14.6945 168.933 14.6955 169.172C11.0015 169.78 13.6366 173.816 15.4937 175.074C14.5085 175.716 14.4711 176.972 14.5573 178.022C14.3486 178.395 14.2789 178.859 14.4606 179.278C15.1552 180.879 16.6576 182.227 17.7999 183.525C19.0611 184.958 20.1857 186.398 21.7204 187.56C27.57 192.021 34.629 194.515 41.8709 195.49C44.4422 195.885 48.1409 196.49 49.733 198.665C49.3424 201.246 48.6251 203.722 47.9744 206.239C47.0645 209.581 47.1264 213.079 47.1143 216.485C46.9871 216.383 46.7429 216.404 46.7066 216.599C46.4949 218.011 46.3375 219.455 45.4795 220.641C44.7274 222.848 44.2269 225.201 43.9457 227.519C42.8193 238.508 42.5503 249.822 45.0902 260.64C46.0702 264.653 47.6643 268.467 49.8361 271.979C50.4836 273.027 51.5248 273.334 52.4596 273.128C55.5885 274.754 59.5301 275.275 62.9026 274.862C74.4 271.606 70.3939 279.447 86.5143 277.046C114.34 273.5 142.46 280.468 170.227 276.377C170.91 281.661 179.863 280.145 182.972 277.911C192.296 270.977 196.926 249.023 201.606 237.886C204.822 229.108 210.208 213.56 217.262 207.669C219.377 206.015 221.933 205.143 224.491 204.44C234.038 201.979 243.622 199.652 253.187 197.259C254.809 196.859 254.517 194.092 252.783 194.269C250.481 194.505 248.171 194.718 245.861 194.94Z" fill="#E6E6E6"/>
<path fill-rule="evenodd" clip-rule="evenodd" d="M33.3369 193.294C32.6904 193.214 32.0566 192.984 31.4271 192.802C30.4658 192.521 29.5235 192.193 28.5961 191.819C26.682 191.052 24.8249 190.145 23.0841 189.036C20.2721 187.241 17.7876 184.942 15.9137 182.173L15.785 181.98C14.7152 180.35 12.7418 176.73 14.9545 175.492C13.5284 174.3 12.1805 172.159 12.2566 170.507C12.3643 168.169 15.2291 168.201 16.7101 169.192C17.6798 169.841 18.4066 170.75 19.1354 171.644C19.9425 172.637 20.8045 173.584 21.7002 174.495C21.9379 174.736 22.178 174.972 22.4222 175.204L22.6678 175.435C22.6298 175.344 22.596 175.251 22.5664 175.156C22.0721 173.616 22.6615 171.61 24.2016 170.904C25.1442 170.472 26.123 170.736 27.0363 171.103L27.1763 171.16C28.4059 171.669 29.6502 172.119 30.9305 172.481C36.1488 173.954 41.5953 174.199 46.9425 174.934C49.0024 175.22 51.1002 175.579 53.1495 176.107C53.9312 172.787 55.8474 169.604 57.9263 166.986C67.8812 154.459 84.2988 150.319 99.3178 147.639C100.687 147.396 101.821 149.209 102.618 148.78C104.128 147.968 105.457 146.818 106.624 145.569C109.11 142.904 110.874 139.77 112.947 136.8C113.971 135.334 116.329 136.646 115.378 138.221L114.913 138.99C112.995 142.142 110.872 145.391 108.121 147.835C106.659 149.133 105.037 150.158 103.182 150.798C101.777 151.282 99.8059 151.69 98.2679 151.221L98.0833 150.952C98.1444 151.042 98.2059 151.131 98.2678 151.221C102.282 157.039 107.319 161.964 112.626 166.611C117.982 171.3 123.761 175.498 129.575 179.604L130.059 179.945C139.53 173.035 147.531 164.02 153.144 153.721C151.968 153.58 150.804 152.825 149.798 152.263C148.588 151.582 147.449 150.771 146.562 149.689C144.628 147.332 144.88 144.295 144.531 141.435C144.51 141.258 144.745 141.213 144.852 141.302C145.9 142.173 146.268 143.6 146.705 144.832C147.187 146.187 147.732 147.303 148.837 148.256C149.866 149.144 151.121 149.796 152.34 150.378C152.968 150.676 156.089 151.442 156.445 152.077C161.836 150.811 167.088 152.998 171.083 156.689C174.943 160.254 177.776 164.889 180.278 169.465C182.946 174.347 185.133 179.436 187.017 184.667C188.927 189.976 190.391 195.402 191.196 200.99C191.876 205.701 192.292 210.486 192.562 215.25L192.595 215.846C196.583 209.583 200.671 203.386 204.844 197.245C203.895 194.71 204.945 192.124 206.722 190.166C208.691 188 211.414 186.994 214.019 185.823L214.362 185.668C215.617 185.095 216.869 184.464 217.953 183.606C218.997 182.778 219.764 181.636 220.862 180.873C222.459 179.762 225.358 179.998 225.432 182.427C225.47 183.761 224.897 185.223 224.373 186.421C223.78 187.776 222.979 189.004 222.028 190.133C221.984 190.185 221.936 190.227 221.888 190.26L221.851 190.283C223.165 190.5 224.49 190.676 225.84 190.737C228.563 190.862 231.316 190.661 233.982 190.086C236.712 189.499 239.357 188.543 241.812 187.212C243.909 186.075 245.853 184.604 248.236 184.257C248.456 184.223 248.678 184.202 248.906 184.189C249.286 184.168 249.666 184.616 249.516 184.992C249.434 185.2 249.347 185.405 249.252 185.612C248.428 187.427 247.165 189.188 245.588 190.525L245.466 190.627C246.022 190.435 246.569 190.219 247.108 189.976C250.275 188.55 253.148 186.394 256.543 185.527C256.704 185.485 256.866 185.447 257.029 185.411C258.079 185.185 258.633 186.326 258.016 187.108C257.917 187.235 257.817 187.36 257.714 187.484C256.199 189.365 254.528 191.111 252.686 192.679C252.054 193.216 251.403 193.736 250.74 194.233C250.46 194.443 250.179 194.649 249.895 194.852L249.755 194.951C250.087 194.717 250.414 194.478 250.74 194.233C252.819 193.603 254.868 192.857 256.873 192.031C257.669 191.703 258.288 192.51 258.373 193.174C258.656 195.397 256.188 197.006 254.583 198.075C252.973 199.149 251.2 199.965 249.385 200.62C245.896 201.881 242.231 202.454 238.572 202.967L236.795 203.215C229.76 204.199 222.413 205.376 217.366 210.851C214.537 213.92 212.623 217.733 210.871 221.484C209.122 225.232 207.586 229.078 206.128 232.946C204.618 236.949 203.302 241.026 201.903 245.069C200.619 248.781 199.084 252.446 197.565 256.074L197.325 256.647C194.099 264.357 190.245 271.619 184.875 278.056C183.99 279.119 182.559 277.611 183.377 276.558C188.995 269.313 192.903 260.764 196.129 252.236C197.597 248.355 198.827 244.382 200.238 240.48L201.078 238.163C202.199 235.073 203.33 231.987 204.51 228.922C206.004 225.043 207.645 221.212 209.523 217.504L209.723 217.114C211.562 213.538 213.746 210.013 216.753 207.307C222.165 202.433 229.367 201.264 236.33 200.338L238.52 200.049C241.464 199.658 244.416 199.226 247.279 198.439C248.931 197.987 250.545 197.407 252.062 196.608C252.666 196.291 253.256 195.943 253.826 195.562C252.2 196.04 250.55 196.431 248.87 196.737C248.048 196.887 247.235 197 246.423 197.078C244.334 197.285 242.262 197.276 240.121 197.164C239.94 197.154 239.881 196.868 240.075 196.832C241.565 196.567 243.058 196.236 244.543 195.876L244.989 195.767C244.997 195.52 245.095 195.258 245.297 195.009C246.037 194.108 247.442 193.647 248.416 193.011C249.436 192.345 250.425 191.627 251.367 190.857C252.229 190.154 253.057 189.41 253.854 188.632L254.093 188.397C254.013 188.476 253.934 188.554 253.854 188.632C251.703 189.626 249.664 190.9 247.419 191.686C245.633 192.314 243.762 192.736 241.873 192.887L241.756 192.896L241.638 192.903C239.667 193.045 237.683 192.988 235.742 193.415C235.524 193.464 235.457 193.172 235.651 193.089C237.347 192.384 239.112 192.111 240.895 191.781C240.933 191.642 241.03 191.517 241.199 191.437L241.655 191.219C243.014 190.566 244.28 189.907 245.409 188.848C246.407 187.911 247.237 186.817 247.86 185.603C245.365 186.151 243.174 188.042 240.905 189.105C238.433 190.266 235.818 191.098 233.131 191.572L232.824 191.625C227.802 192.463 221.763 192.356 217.264 189.744C217.121 189.659 217.224 189.467 217.372 189.49C218.648 189.699 219.912 189.947 221.175 190.166C220.928 189.94 220.818 189.534 221.103 189.209C222.238 187.908 223.135 186.421 223.709 184.794L223.818 184.476C224.083 183.721 224.529 182.55 224.073 181.869C223.638 181.22 222.614 181.309 222.001 181.583C220.727 182.158 219.88 183.594 218.807 184.46C217.636 185.407 216.305 186.108 214.942 186.736L214.655 186.867C212.298 187.928 209.78 188.82 207.926 190.693C206.929 191.699 206.071 192.956 205.784 194.366C205.653 195.013 205.653 195.678 205.826 196.319C205.964 196.82 206.251 197.128 206.086 197.638C205.871 198.295 205.108 199.081 204.715 199.667C204.259 200.343 203.804 201.021 203.35 201.7C202.444 203.057 201.542 204.418 200.64 205.777C198.835 208.499 197.05 211.234 195.28 213.977C194.704 214.87 194.13 215.765 193.557 216.66L192.7 218.003L192.247 218.712L191.475 219.926C191.502 220.039 191.5 220.157 191.464 220.26C191.333 220.636 191.086 220.892 190.78 221.078L190.725 221.11C186.216 228.239 181.78 235.414 177.299 242.56C177.06 244.741 176.836 246.924 176.642 249.108C176.2 254.049 175.898 259.003 175.801 263.964C175.754 266.365 175.947 268.78 176.05 271.179C176.101 272.324 176.17 273.467 176.261 274.611L176.328 275.421C176.417 276.534 176.467 277.64 176.067 278.701C175.712 279.633 174.631 279.842 173.99 279.132C165.639 278.796 157.281 278.54 148.923 278.382C133.964 278.094 118.997 278.139 104.035 278.428C96.5207 278.574 89.0038 278.779 81.4911 279.033C77.7897 279.155 74.0862 279.329 70.3826 279.379C68.3873 279.407 65.2469 278.68 65.0859 276.434L65.0819 276.366C64.8326 276.433 64.5749 276.488 64.3108 276.528C64.1932 276.546 64.0803 276.541 63.976 276.517L63.9242 276.503C60.9498 277.41 57.1874 276.116 54.3611 275.362L54.1277 275.3C51.4299 274.597 49.2623 273.59 47.4939 271.354C44.3989 267.438 43.3425 262.18 42.7932 257.333C42.2777 252.772 42.2482 248.127 42.8756 243.575C42.5059 239.866 42.8672 236.038 43.2876 232.35C43.4946 230.526 43.7376 228.704 44.0291 226.891C44.1918 225.878 44.4052 224.876 44.6228 223.877C44.7097 223.477 44.782 223.047 44.8921 222.631L44.9418 222.454C44.6038 222.499 44.234 222.425 43.877 222.228C43.0277 221.761 42.7805 220.816 42.7657 219.912C42.7193 217.185 43.0446 214.381 43.3319 211.671C43.6214 208.966 44.0185 206.25 44.5383 203.579L44.6728 202.89C45.0666 200.891 45.5172 198.828 46.3108 196.951C43.3299 196.444 40.3573 195.905 37.4651 194.987C36.0538 194.537 34.6637 193.977 33.3369 193.294ZM188.927 221.668C188.881 221.679 188.836 221.691 188.792 221.704C187.6 222.038 186.396 222.321 185.196 222.626C183.121 223.148 181.093 223.731 179.164 224.638C178.76 229.74 178.161 234.825 177.592 239.913L177.478 240.931C178.353 239.307 179.249 237.697 180.185 236.106C183.035 231.255 185.95 226.443 188.927 221.668ZM45.6685 222.173C45.6749 222.78 45.5481 223.41 45.4805 223.993C45.3707 224.94 45.2819 225.891 45.17 226.838C44.9418 228.74 44.7474 230.644 44.6059 232.555C44.515 233.774 44.4559 234.998 44.4031 236.222C45.601 231.743 47.1876 227.362 48.6961 222.974C48.4439 222.948 48.1862 222.886 47.9203 222.815L47.4727 222.695C47.2087 222.627 46.3526 222.416 45.6685 222.173ZM192.7 218.003L192.709 218.204C192.74 218.916 192.314 219.318 191.796 219.422C192.096 218.948 192.398 218.475 192.7 218.003ZM55.6298 184.247C56.8911 184.358 58.127 184.627 59.3059 185.092L59.4196 185.136C60.2916 185.473 61.5664 185.896 61.8516 186.827C61.9319 187.091 61.7164 187.309 61.4693 187.33C60.5228 187.406 59.4073 186.392 58.5305 186.049C57.5545 185.669 56.5319 185.386 55.4967 185.236C53.1707 184.895 50.7453 185.153 48.5566 186.001C48.4277 186.052 48.3474 185.846 48.4636 185.785C50.6693 184.585 53.1221 184.025 55.6298 184.247ZM28.9024 190.291C28.7566 190.162 28.6108 190.027 28.4671 189.892C27.3344 188.82 26.3314 187.569 25.5887 186.194L25.3932 185.822C24.7883 184.65 24.0456 182.981 25.4671 182.137C26.3164 181.632 27.3389 181.759 28.2854 182.065C28.3467 182.084 28.408 182.106 28.4692 182.127C28.8918 182.275 29.2995 182.452 29.6629 182.621C31.2411 183.346 32.6333 184.401 34.0911 185.331C35.6706 186.339 37.2302 186.984 39.0532 187.361L39.2249 187.396C40.9361 187.734 42.7911 187.951 43.9847 189.359C44.2847 189.714 44.0101 190.38 43.4925 190.204C40.1925 189.091 36.7002 188.845 33.6706 187.017C32.4157 186.261 31.2284 185.392 29.946 184.675C29.2657 184.295 28.5633 183.962 27.8148 183.734L27.4059 183.613C27.1664 183.543 26.8805 183.474 26.6882 183.543C26.3223 183.67 26.4391 183.866 26.5523 184.208L26.5636 184.242C27.453 186.994 29.9882 189.298 32.3375 190.822C32.8763 191.172 33.4277 191.494 33.9897 191.792C37.7936 193.82 42.05 194.764 46.2304 195.885C46.2304 195.885 48.6475 196.56 49.4482 196.813C50.3397 196.739 51.3559 197.054 52.0277 197.431C52.6806 197.796 53.2066 198.287 53.6038 198.864C53.6038 198.864 53.9862 199.183 54.0559 199.677C54.2566 200.136 54.3918 200.63 54.4594 201.146C54.4975 201.448 54.4214 201.681 54.2777 201.845C54.7099 208.48 52.9184 215.078 50.8987 221.383L50.6986 222.005L50.57 222.399C48.3918 229.084 45.8925 235.721 44.777 242.691C44.0313 247.347 44.0545 252.166 44.6017 256.843L44.6403 257.166C45.1794 261.588 46.2167 266.549 49.0277 270.108C50.4615 271.924 52.1602 272.731 54.332 273.316L54.451 273.348C56.4158 273.865 58.4439 274.599 60.47 274.821C62.3503 275.026 63.9263 274.326 65.6186 273.671L65.6207 273.669C69.1848 270.513 70.8031 265.919 71.9988 261.281C75.0981 249.281 74.7136 236.824 72.9559 224.648C72.039 218.287 70.7925 211.98 69.5502 205.675C68.9291 202.524 68.2594 199.379 67.7038 196.217L67.3738 194.357C67.1917 193.323 67.0156 192.288 66.865 191.249C66.6622 189.852 66.601 188.478 66.5312 187.072C64.8242 184.242 62.346 181.911 59.4749 180.239C57.4193 179.041 55.2432 178.21 52.9974 177.608C46.577 175.877 39.5777 176 33.1171 174.668C30.9468 174.221 28.8866 173.558 26.8275 172.763L26.5467 172.654C25.6024 172.286 24.639 172.081 24.17 173.195C23.8362 173.988 24.0347 174.812 24.5355 175.478C25.7629 177.109 28.2305 177.866 30.0876 178.453C31.2052 178.808 32.346 179.09 33.4995 179.299C34.6531 179.508 35.8108 179.561 36.9178 179.969C37.3446 180.125 37.4291 180.804 36.9178 180.924C35.515 181.252 34.1038 180.971 32.7094 180.698C31.1777 180.396 29.6693 179.967 28.2031 179.424C27.9326 179.324 27.6527 179.219 27.3677 179.107L27.1531 179.022C27.3749 179.183 27.5967 179.341 27.8207 179.5C27.8798 179.542 27.8439 179.654 27.7657 179.626C24.3183 178.34 21.1815 176.018 18.7514 173.272L18.6305 173.134C17.7749 172.153 15.8249 169.186 14.1812 170.012C12.6378 170.787 15.2688 173.775 16.2687 174.996L16.3848 175.14C17.5214 175.169 18.6221 175.877 19.5432 176.448C21.1425 177.439 22.8137 178.293 24.5165 179.092C27.901 180.683 31.4946 181.806 34.8432 183.477C34.8876 183.501 34.8538 183.557 34.8115 183.551C32.6799 183.211 30.5714 182.668 28.5115 181.994L28.4196 181.965L28.3277 181.934C27.0411 181.512 25.7714 181.034 24.5228 180.525C23.1348 179.958 21.7785 179.322 20.4623 178.601C19.2707 177.95 17.9482 176.777 16.5665 176.604C16.4186 176.585 16.2876 176.583 16.1735 176.594C14.5869 176.727 15.8989 179.356 16.3426 180.142C17.0672 181.433 17.9419 182.625 18.9454 183.714C20.9799 185.925 23.4454 187.677 26.1137 189.04C27.0242 189.505 27.9559 189.915 28.9024 190.291Z" fill="black"/>
<path fill-rule="evenodd" clip-rule="evenodd" d="M157.605 77.4167C151.269 68.6739 139.602 66.1597 129.485 68.2861C109.706 71.9006 90.8091 87.0284 87.3142 107.602C81.8618 120.049 85.3436 139.653 101.201 141.118C103.458 141.246 105.694 140.725 107.956 141.006C121.759 143.216 138.069 152.678 150.288 141.52C150.9 141.96 151.707 142.172 152.393 141.906C157.594 139.891 157.838 134.063 158.282 129.272C158.854 123.081 159.392 116.887 159.893 110.691C160.071 100.004 164.297 86.6505 157.605 77.4167V77.4167Z" fill="#E6E6E6"/>
<path fill-rule="evenodd" clip-rule="evenodd" d="M119.258 55.1389C127.585 54.6951 142.929 58.5188 150.194 63.0018C162.031 70.3058 162.949 84.8759 162.466 87.3952C162.282 88.3566 161.696 89.2464 160.779 88.9507C161.557 95.57 161.496 99.3534 161.627 106.011L161.717 110.456C161.775 113.419 161.825 116.382 161.838 119.347C162.137 119.235 162.432 119.372 162.542 119.66C162.569 119.73 162.474 119.768 162.428 119.728C161.901 119.267 162.276 120.317 162.457 120.531C162.708 120.824 163.126 121.101 163.419 121.353L164.215 122.044V122.044L165.01 122.733C166.039 123.622 167.033 124.513 167.992 125.471L168.253 125.734C170.001 127.514 172.191 129.236 173.279 131.538C174.318 133.736 173.998 136.227 172.271 137.98C171.643 138.616 170.909 139.102 170.112 139.47C171.531 141.812 171.738 144.908 170.258 147.317C168.776 149.735 165.925 151.001 163.181 150.807C163.096 151.151 162.966 151.487 162.793 151.806C161.704 153.811 159.539 154.072 157.486 153.964L157.406 153.96C152.785 153.693 148.339 152.533 144.291 150.278C142.887 150.373 141.635 149.217 141.36 147.949C140.623 147.922 139.881 147.86 139.124 147.773C136.878 147.514 134.576 147.03 132.597 145.886C132.293 145.711 132.434 145.248 132.772 145.239C135.183 145.184 137.597 145.352 140.005 145.09C142.214 144.851 144.569 144.24 146.629 143.409C150.331 141.913 153.506 139.375 155.258 135.858C157.526 131.305 157.32 125.838 157.566 120.892C157.84 115.418 158.176 109.948 158.536 104.48L158.71 101.858C159.059 96.7487 159.349 94.0153 160.233 88.7119C157.566 88.9507 146.488 84.9534 143.043 78.4147C136.504 92.3247 103.376 86.6319 101.907 108.046C101.895 108.228 101.608 108.177 101.597 108.004L101.57 107.516C101.557 107.275 101.545 107.037 101.537 106.802L101.53 106.567L101.009 106.573C101.009 106.638 100.916 106.662 100.893 106.592C100.402 105.195 98.0619 105.645 97.0436 105.977C96.1265 106.277 95.2622 106.738 94.4863 107.306C92.9284 108.448 91.7204 109.984 91.3198 111.905C90.5587 115.553 92.8757 119.269 95.9516 121.029C97.8911 122.139 100.016 122.856 101.876 124.113C103.518 125.223 105.049 126.522 106.375 128C111.628 133.852 114.719 142.729 112.233 150.454C112.044 151.043 111.542 151.717 110.878 151.813C109.779 151.971 108.681 151.811 108.065 150.762C107.825 150.352 107.711 149.885 107.737 149.424C107.311 150.891 105.93 152.341 104.656 152.886C102.921 153.63 100.967 153.408 99.4364 152.449L99.2431 152.592C96.754 154.429 93.9734 156.103 90.7843 155.765C88.4737 155.52 86.2053 154.34 84.9277 152.48C83.2285 153.438 81.4133 154.201 79.5412 154.721L79.3419 154.775C76.7663 155.478 73.4809 156.123 71.0767 154.695C68.7682 153.324 68.0008 150.329 68.5426 147.828C68.608 147.531 68.6902 147.241 68.7914 146.96C67.0542 147.053 65.3191 146.886 63.6705 146.375C61.9861 145.852 60.3796 144.848 59.5721 143.221C58.6614 141.38 58.9038 139.288 59.5827 137.413C60.6684 134.406 62.414 131.73 64.5876 129.399C66.6778 127.155 69.1991 125.252 71.8195 123.665L72.2612 123.4C74.62 121.99 77.4645 120.337 80.2517 120.446C80.2432 120.41 80.2369 120.376 80.2327 120.34C79.811 117.227 79.8595 114.053 79.7604 110.914C79.6698 108.027 79.5665 105.14 79.499 102.251C79.3894 97.339 79.4252 92.4063 80.064 87.5283C80.6311 83.1999 81.6515 78.979 83.5131 75.0162C85.4674 70.8528 88.4105 67.3 92.045 64.5059C99.6726 58.641 109.748 55.6461 119.258 55.1389ZM93.35 112.831C94.1806 111.261 96.0717 110.766 97.7309 111.049C100.056 111.447 101.637 113.484 102.995 115.236C104.42 117.073 101.448 118.804 100.682 117.025L100.501 116.604C99.8869 115.193 99.1614 113.705 97.908 112.785C96.5756 111.808 94.695 111.664 93.5187 112.962C93.4343 113.057 93.2931 112.935 93.35 112.831Z" fill="#34369A"/>
<path fill-rule="evenodd" clip-rule="evenodd" d="M134.969 134.92C133.549 134.34 132.282 133.373 131.355 132.138C131.033 131.709 130.95 131.256 131.017 130.841C131.093 130.375 131.369 129.952 131.745 129.669C132.122 129.384 132.594 129.244 133.05 129.316C133.447 129.378 133.841 129.595 134.153 130.045L134.219 130.135C134.77 130.881 135.487 131.492 136.305 131.886C137.093 132.266 137.975 132.444 138.887 132.341C140.624 132.144 141.822 131.204 143.095 129.928C143.253 129.767 143.41 129.6 143.569 129.432C143.669 129.278 143.808 129.18 143.963 129.128C144.134 129.071 144.328 129.074 144.506 129.136C144.677 129.196 144.83 129.309 144.933 129.46C145.03 129.604 145.085 129.781 145.068 129.984C144.951 131.307 144.26 132.488 143.278 133.415C142.187 134.444 140.741 135.157 139.38 135.407C137.881 135.682 136.353 135.485 134.969 134.92V134.92ZM140.088 114.512C141.683 115.482 144.114 117.744 142.397 120.149C140.377 122.27 137.469 119.838 136.035 118.739C134.706 117.887 133.213 120.078 134.446 121.074C144.803 128.745 149.006 114.766 140.894 113.371C140.001 113.218 139.67 114.212 140.088 114.512ZM121.527 105.589C121.704 103.4 125.036 102.903 125.367 105.069C125.664 107.009 125.315 108.791 124.441 110.538C123.607 112.207 121.509 111.428 121.35 109.909C121.137 107.872 121.418 106.95 121.527 105.589ZM146.893 104.62C147.358 104.011 148.028 103.595 148.832 103.83C151.343 104.564 150.603 108.13 149.721 109.866C149.242 110.809 147.693 111.048 146.993 110.218C145.852 108.864 145.306 106.161 146.756 104.828C146.796 104.759 146.839 104.69 146.893 104.62ZM124.406 96.0111L124.803 95.9417C126.03 95.7294 127.555 95.5254 128.423 96.5123C128.883 97.0356 129.042 98.0082 128.423 98.5091C127.335 99.3904 126.131 99.0489 124.827 99.1235C123.752 99.1852 122.719 99.3632 121.683 99.6593C119.412 100.309 117.561 101.494 115.621 102.796C115.366 102.967 115.107 102.641 115.228 102.403C116.348 100.209 118.518 98.4062 120.692 97.3074C121.853 96.7209 123.122 96.2343 124.406 96.0111ZM144.604 95.0281L144.908 95.0903C148.211 95.7811 152.504 97.1611 154.068 100.407C154.128 100.866 154.065 100.965 154.013 101.029L153.996 101.05C153.954 101.105 153.92 101.181 153.722 101.243C153.666 101.23 153.611 101.216 153.554 101.202C152.837 101.014 152.27 100.755 151.721 100.486L151.125 100.192C150.434 99.8533 149.737 99.5268 148.998 99.2857C147.422 98.7712 145.8 98.4089 144.153 98.2154C143.797 98.1735 143.453 98.053 143.182 97.8464C142.924 97.6504 142.728 97.379 142.638 97.0182C142.522 96.5513 142.555 96.1979 142.806 95.7767C142.994 95.4604 143.263 95.2411 143.573 95.1152C143.888 94.9869 144.247 94.9566 144.604 95.0281Z" fill="black"/>
<path fill-rule="evenodd" clip-rule="evenodd" d="M159.574 119.108C156.678 121.393 152.332 121.574 149.141 119.708C140.947 114.906 146.726 104.159 153.833 102.023C154.698 101.928 155.882 101.584 156.916 101.609C157.015 101.576 157.197 101.734 157.457 101.643C164.731 103.465 164.864 115.16 159.574 119.108M131.475 116C128.113 119.398 122.655 119.849 118.562 117.506C110.462 112.98 114.851 103.351 121.236 100.206C134.228 97.2273 137.737 109.743 131.475 116M114.06 105.114C114.053 105.109 114.045 105.106 114.038 105.101C114.085 105.087 114.133 105.074 114.181 105.059C114.161 105.096 114.14 105.132 114.121 105.168C114.101 105.15 114.084 105.129 114.06 105.114M167.053 108.105C166.355 108.012 165.331 107.991 164.688 108.397C163.912 103.397 159.253 98.2377 154.24 100.865C150.482 101.537 147.462 103.746 145.481 106.958C142.962 104.958 138.561 105.073 135.895 106.908C135.033 101.556 131.448 99.238 126.927 98.357C122.063 96.8705 116.453 101.033 114.383 104.701C113.117 104.381 111.25 103.712 109.933 104.343C102.359 101.222 88.7826 98.233 87.0316 99.1622C85.8349 99.4453 84.8479 102.047 86.4175 102.407C87.8288 102.397 86.5216 100.417 87.9435 100.412C95.4432 100.955 102.461 103.428 109.735 105.05C110.272 106.023 112.355 106.605 113.536 106.403C110.864 112.738 114.111 117.732 119.699 119.851C128.355 123.109 137.206 116.164 135.993 107.534C138.881 106.552 141.985 107.031 144.838 108.138C137.463 125.609 166.771 128.737 164.786 109.043C167.617 110.963 168.604 108.624 167.053 108.105" fill="black"/>
</svg>
