<svg xmlns="http://www.w3.org/2000/svg" xmlns:xlink="http://www.w3.org/1999/xlink" version="1.1" x="0px" y="0px" viewBox="0 0 90 90" enable-background="new 0 0 90 90" xml:space="preserve"><g><path d="M31.448,48.578c-1.582,0-2.787-0.086-3.975,0.016c-3.351,0.289-6.316,2.684-6.806,5.403   c-0.501,2.787,1.06,5.871,3.66,7.229c2.612,1.363,5.677,0.648,8.22-1.895c1.268-1.27,2.1-2.824,2.781-4.439   c1.148-2.719,3.211-4.554,5.567-6.163c0.817-0.557,1.558-0.465,2.359-0.008c0.827,0.471,0.499,1.199,0.502,1.875   c0.013,3.46-1.294,6.417-3.332,9.14c-0.839,1.119-1.563,2.338-1.847,3.754c-0.549,2.744-0.072,5.238,2.127,7.1   c2.055,1.738,4.442,2.037,6.914,0.902c2.556-1.172,3.768-3.283,3.911-6.027c0.128-2.459-0.992-4.469-2.438-6.338   c-1.899-2.451-3.238-5.102-3.085-8.325c0.04-0.842-0.119-1.631,0.833-2.184c1.038-0.605,1.779-0.066,2.502,0.449   c2.383,1.697,4.38,3.729,5.526,6.503c0.761,1.84,1.828,3.5,3.432,4.73c2.082,1.596,4.356,2.246,6.903,1.17   c2.78-1.176,4.077-3.387,4.13-6.299c0.048-2.682-1.521-4.392-3.742-5.659c-2.435-1.391-5.068-1.102-7.628-0.832   c-2.887,0.303-5.42-0.426-7.867-1.811c-0.702-0.396-1.3-0.746-1.209-1.737c0.086-0.937,0.665-1.331,1.387-1.678   c2.705-1.307,5.51-2.052,8.562-1.78c1.394,0.124,2.824,0.12,4.214-0.042c3.094-0.362,5.739-2.852,6.288-5.747   c0.475-2.509-0.864-5.227-3.34-6.775c-2.395-1.499-5.188-1.169-7.814,0.868c-1.436,1.113-2.448,2.526-3.065,4.203   c-1.194,3.239-3.3,5.663-6.251,7.428c-0.682,0.407-1.211,0.573-1.924,0.172c-0.714-0.401-0.952-0.987-0.902-1.75   c0.203-3.121,0.751-6.116,2.72-8.707c0.976-1.285,1.82-2.68,2.3-4.25c0.877-2.874,0.396-5.451-1.844-7.533   c-2.032-1.891-4.959-2.243-7.45-0.881c-2.625,1.435-3.635,3.729-3.422,6.7c0.165,2.296,1.22,4.167,2.51,5.931   c1.936,2.646,2.933,5.579,2.936,8.838c0,1.552-1.225,2.324-2.514,1.531c-2.287-1.406-4.409-3.005-5.584-5.577   c-0.67-1.468-1.426-2.91-2.286-4.273c-1.709-2.709-4.802-4.003-7.818-3.398c-2.478,0.497-4.415,2.558-4.903,5.215   c-0.516,2.792,0.679,5.324,3.34,6.952c1.615,0.988,3.4,1.278,5.274,1.124c3.526-0.29,7.02-0.463,10.219,1.55   c0.767,0.483,1.362,0.872,1.392,1.884c0.025,0.988-0.617,1.32-1.305,1.708C36.942,48.352,34.101,48.938,31.448,48.578z"></path><path fill-rule="evenodd" clip-rule="evenodd" fill="none" d="M31.448,48.578c2.652,0.359,5.494-0.227,8.156-1.732   c0.688-0.389,1.33-0.721,1.305-1.708c-0.029-1.012-0.625-1.401-1.392-1.884c-3.199-2.014-6.692-1.84-10.219-1.55   c-1.874,0.154-3.659-0.135-5.274-1.124c-2.661-1.628-3.855-4.16-3.34-6.952c0.488-2.657,2.426-4.718,4.903-5.215   c3.017-0.605,6.109,0.689,7.818,3.398c0.86,1.363,1.616,2.805,2.286,4.273c1.175,2.571,3.297,4.17,5.584,5.577   c1.289,0.793,2.514,0.021,2.514-1.531c-0.003-3.259-1-6.192-2.936-8.838c-1.29-1.765-2.345-3.635-2.51-5.931   c-0.213-2.971,0.797-5.266,3.422-6.7c2.491-1.362,5.418-1.01,7.45,0.881c2.24,2.082,2.721,4.659,1.844,7.533   c-0.479,1.57-1.324,2.965-2.3,4.25c-1.969,2.591-2.517,5.585-2.72,8.707c-0.05,0.763,0.188,1.348,0.902,1.75   c0.713,0.401,1.242,0.235,1.924-0.172c2.951-1.765,5.057-4.189,6.251-7.428c0.617-1.677,1.63-3.09,3.065-4.203   c2.627-2.037,5.42-2.367,7.814-0.868c2.476,1.549,3.814,4.267,3.34,6.775c-0.549,2.895-3.194,5.385-6.288,5.747   c-1.39,0.162-2.82,0.167-4.214,0.042c-3.052-0.271-5.856,0.474-8.562,1.78c-0.722,0.348-1.301,0.742-1.387,1.678   c-0.091,0.991,0.507,1.341,1.209,1.737c2.447,1.385,4.98,2.113,7.867,1.811c2.56-0.27,5.193-0.559,7.628,0.832   c2.222,1.268,3.79,2.978,3.742,5.659c-0.053,2.912-1.35,5.123-4.13,6.299c-2.547,1.076-4.821,0.426-6.903-1.17   c-1.604-1.23-2.671-2.891-3.432-4.73c-1.146-2.773-3.144-4.806-5.526-6.503c-0.723-0.516-1.464-1.055-2.502-0.449   c-0.952,0.553-0.793,1.342-0.833,2.184c-0.153,3.224,1.186,5.874,3.085,8.325c1.446,1.869,2.566,3.879,2.438,6.338   c-0.144,2.744-1.355,4.855-3.911,6.027c-2.472,1.135-4.859,0.836-6.914-0.902c-2.199-1.861-2.676-4.355-2.127-7.1   c0.283-1.416,1.008-2.635,1.847-3.754c2.038-2.723,3.345-5.68,3.332-9.14c-0.003-0.676,0.325-1.404-0.502-1.875   c-0.802-0.457-1.542-0.549-2.359,0.008c-2.356,1.609-4.419,3.444-5.567,6.163c-0.682,1.615-1.514,3.17-2.781,4.439   c-2.543,2.543-5.607,3.258-8.22,1.895c-2.601-1.357-4.161-4.441-3.66-7.229c0.489-2.72,3.455-5.114,6.806-5.403   C28.661,48.492,29.866,48.578,31.448,48.578z"></path></g></svg>