<?xml version="1.0" encoding="UTF-8"?>
<svg width="1200pt" height="1200pt" version="1.1" viewBox="0 0 1200 1200" xmlns="http://www.w3.org/2000/svg">
 <path d="m419.31 647.71c-21.094 0-37.16-1.1484-53 0.21484-44.68 3.8516-84.215 35.785-90.746 72.039-6.6797 37.16 14.133 78.281 48.801 96.387 34.828 18.172 75.691 8.6406 109.6-25.266 16.906-16.934 28-37.652 37.078-59.188 15.309-36.254 42.812-60.719 74.227-82.172 10.895-7.4258 20.773-6.1992 31.453-0.10547 11.027 6.2812 6.6523 15.988 6.6914 25 0.17188 46.133-17.254 85.559-44.426 121.87-11.188 14.922-20.84 31.172-24.625 50.055-7.3203 36.586-0.96094 69.84 28.359 94.668 27.398 23.172 59.227 27.16 92.188 12.027 34.078-15.625 50.238-43.773 52.148-80.359 1.707-32.785-13.227-59.586-32.508-84.508-25.32-32.68-43.172-68.027-41.133-111 0.53516-11.227-1.5859-21.746 11.105-29.121 13.84-8.0664 23.719-0.87891 33.359 5.9883 31.773 22.625 58.398 49.719 73.68 86.707 10.148 24.535 24.375 46.668 45.762 63.066 27.762 21.281 58.078 29.945 92.039 15.602 37.066-15.68 54.359-45.16 55.066-83.988 0.64062-35.762-20.281-58.559-49.895-75.453-32.465-18.547-67.574-14.691-101.71-11.094-38.492 4.0391-72.266-5.6797-104.89-24.148-9.3594-5.2812-17.332-9.9453-16.121-23.16 1.1484-12.492 8.8672-17.746 18.492-22.375 36.066-17.426 73.465-27.359 114.16-23.734 18.586 1.6523 37.652 1.6016 56.188-0.55859 41.254-4.8281 76.52-38.027 83.84-76.625 6.332-33.453-11.52-69.691-44.535-90.332-31.934-19.988-69.172-15.586-104.19 11.574-19.148 14.84-32.641 33.68-40.867 56.039-15.922 43.188-44 75.508-83.348 99.039-9.0938 5.4258-16.148 7.6406-25.652 2.293-9.5195-5.3477-12.691-13.16-12.027-23.332 2.707-41.613 10.012-81.547 36.266-116.09 13.012-17.133 24.266-35.734 30.668-56.668 11.691-38.32 5.2812-72.68-24.586-100.44-27.094-25.215-66.121-29.906-99.332-11.746-35 19.133-48.465 49.719-45.625 89.332 2.1992 30.613 16.266 55.559 33.465 79.078 25.812 35.281 39.105 74.387 39.148 117.84 0 20.691-16.332 30.988-33.52 20.414-30.492-18.746-58.785-40.066-74.453-74.359-8.9336-19.574-19.012-38.801-30.48-56.973-22.785-36.121-64.027-53.375-104.24-45.309-33.039 6.625-58.867 34.105-65.375 69.535-6.8789 37.227 9.0547 70.988 44.535 92.691 21.535 13.172 45.332 17.039 70.32 14.988 47.012-3.8672 93.602-6.1719 136.25 20.668 10.227 6.4414 18.16 11.625 18.559 25.121 0.33203 13.172-8.2266 17.602-17.398 22.773-35.523 20.086-73.402 27.902-108.77 23.102z" fill="#34369a"/>
</svg>
