<svg xmlns="http://www.w3.org/2000/svg" xmlns:xlink="http://www.w3.org/1999/xlink" version="1.1" x="0px" y="0px" viewBox="0 0 100 100" enable-background="new 0 0 100 100" xml:space="preserve"><path d="M73.392,49.596c0-0.44-0.287-0.828-0.708-0.957l-14.975-4.565l3.817-13.996c0.119-0.436-0.069-0.897-0.459-1.126  c-0.39-0.229-0.885-0.167-1.207,0.149L49.508,39.274L39.155,29.103c-0.324-0.316-0.818-0.378-1.207-0.149  c-0.39,0.229-0.578,0.69-0.459,1.126l3.817,13.996L26.333,48.64c-0.421,0.128-0.708,0.517-0.708,0.957s0.287,0.828,0.708,0.957  l14.974,4.565l-3.817,13.996c-0.119,0.436,0.069,0.897,0.459,1.126c0.389,0.228,0.883,0.167,1.207-0.149l10.353-10.171L59.86,70.09  c0.192,0.188,0.445,0.287,0.701,0.287c0.174,0,0.349-0.045,0.506-0.137c0.39-0.229,0.578-0.69,0.459-1.126l-3.817-13.996  l14.975-4.565C73.104,50.424,73.392,50.036,73.392,49.596z M56.197,53.488c-0.517,0.158-0.815,0.698-0.673,1.22l3.099,11.363  l-8.414-8.267c-0.195-0.191-0.448-0.287-0.701-0.287s-0.506,0.096-0.701,0.287l-8.414,8.267l3.099-11.363  c0.143-0.522-0.156-1.062-0.673-1.22l-12.765-3.892l12.765-3.892c0.517-0.158,0.815-0.698,0.673-1.22l-3.099-11.363l8.414,8.267  c0.391,0.382,1.012,0.382,1.402,0l8.414-8.267l-3.099,11.363c-0.143,0.522,0.156,1.062,0.673,1.22l12.766,3.892L56.197,53.488z"></path></svg>